<svg width="16" height="16" viewBox="0 0 16 16" fill="none" xmlns="http://www.w3.org/2000/svg">
<path d="M2 10.6663L4.97978 7.68654C5.20615 7.46021 5.51319 7.33301 5.83333 7.33301C6.15348 7.33301 6.46051 7.46021 6.68687 7.68654L9.33333 10.333M9.33333 10.333L10.3333 11.333M9.33333 10.333L10.6465 9.01987C10.8728 8.79354 11.1799 8.66634 11.5 8.66634C11.8201 8.66634 12.1272 8.79354 12.3535 9.01987L14 10.6663" stroke="#1A1A1A" stroke-linecap="round" stroke-linejoin="round"/>
<path d="M7.99996 1.66699C5.18014 1.66699 3.77023 1.66699 2.83513 2.46564C2.70235 2.57905 2.57868 2.70271 2.46527 2.8355C1.66663 3.77059 1.66663 5.18051 1.66663 8.00033C1.66663 10.8201 1.66663 12.2301 2.46527 13.1651C2.57868 13.2979 2.70235 13.4216 2.83513 13.535C3.77023 14.3337 5.18014 14.3337 7.99996 14.3337C10.8198 14.3337 12.2297 14.3337 13.1648 13.535C13.2976 13.4216 13.4212 13.2979 13.5346 13.1651C14.3333 12.2301 14.3333 10.8201 14.3333 8.00033" stroke="#1A1A1A" stroke-linecap="round" stroke-linejoin="round"/>
<path d="M14.3333 4.00033H12M12 4.00033H9.66663M12 4.00033V1.66699M12 4.00033V6.33366" stroke="#1A1A1A" stroke-linecap="round" stroke-linejoin="round"/>
</svg>
