<svg width="18" height="18" viewBox="0 0 18 18" fill="none" xmlns="http://www.w3.org/2000/svg">
<path d="M10.875 6.74902C10.875 7.78455 10.0355 8.62402 9 8.62402C7.96447 8.62402 7.125 7.78455 7.125 6.74902C7.125 5.71349 7.96447 4.87402 9 4.87402C10.0355 4.87402 10.875 5.71349 10.875 6.74902Z" stroke="#D9D9D9" stroke-width="1.125"/>
<path d="M9.94305 13.1192C9.69007 13.3628 9.35197 13.499 9.00015 13.499C8.64825 13.499 8.31015 13.3628 8.05717 13.1192C5.74072 10.8746 2.63639 8.36715 4.15028 4.72682C4.96882 2.75851 6.9337 1.49902 9.00015 1.49902C11.0665 1.49902 13.0314 2.75852 13.8499 4.72682C15.3619 8.36257 12.2652 10.8823 9.94305 13.1192Z" stroke="#D9D9D9" stroke-width="1.125"/>
<path d="M13.5 14.999C13.5 15.8275 11.4853 16.499 9 16.499C6.51472 16.499 4.5 15.8275 4.5 14.999" stroke="#D9D9D9" stroke-width="1.125" stroke-linecap="round"/>
</svg>
