<svg width="18" height="18" viewBox="0 0 18 18" fill="none" xmlns="http://www.w3.org/2000/svg">
<path d="M1.5 6C1.5 7.00633 7.57118 9.75 8.98958 9.75C10.4079 9.75 16.4792 7.00633 16.4792 6C16.4792 4.99366 10.4079 2.25 8.98958 2.25C7.57118 2.25 1.5 4.99366 1.5 6Z" stroke="#D9D9D9" stroke-width="1.125" stroke-linecap="round" stroke-linejoin="round"/>
<path d="M4.49609 8.24902L4.67993 12.4714C4.6836 12.556 4.69274 12.6406 4.71725 12.7216C4.79297 12.972 4.93255 13.1995 5.14549 13.3523C6.81158 14.5479 11.1681 14.5479 12.8341 13.3523C13.0472 13.1995 13.1867 12.972 13.2624 12.7216C13.2869 12.6406 13.296 12.556 13.2998 12.4714L13.4835 8.24902" stroke="#D9D9D9" stroke-width="1.125" stroke-linecap="round" stroke-linejoin="round"/>
<path d="M15.355 7.12402V12.374M15.355 12.374C14.761 13.4587 14.4984 14.0399 14.2316 14.999C14.1737 15.3403 14.2197 15.5122 14.4549 15.6649C14.5504 15.727 14.6653 15.749 14.7791 15.749H15.9194C16.0407 15.749 16.163 15.7237 16.2628 15.6549C16.4815 15.5041 16.5377 15.3388 16.4785 14.999C16.2446 14.1085 15.9467 13.4996 15.355 12.374Z" stroke="#D9D9D9" stroke-width="1.125" stroke-linecap="round" stroke-linejoin="round"/>
</svg>
