<svg width="20" height="20" viewBox="0 0 20 20" fill="none" xmlns="http://www.w3.org/2000/svg">
<path d="M10.7341 5.84844L14.7115 6.90818M9.88154 9.01247L11.8702 9.5423M9.98046 14.9733L10.776 15.1853C13.0259 15.7847 14.1509 16.0845 15.0371 15.5757C15.9234 15.0669 16.2249 13.9482 16.8277 11.711L17.6803 8.54697C18.2832 6.30968 18.5846 5.19104 18.073 4.30977C17.5613 3.4285 16.4363 3.12876 14.1863 2.52929L13.3908 2.31734C11.1409 1.71785 10.0159 1.41812 9.12962 1.92692C8.24334 2.43572 7.9419 3.55436 7.33902 5.79164L6.48642 8.95564C5.88354 11.1929 5.58211 12.3116 6.09379 13.1928C6.60547 14.0741 7.73047 14.3739 9.98046 14.9733Z" stroke="#797979" stroke-width="1.25" stroke-linecap="round"/>
<path d="M9.99996 17.454L9.20638 17.67C6.96165 18.2813 5.83931 18.5869 4.95512 18.0681C4.07094 17.5494 3.7702 16.4088 3.16874 14.1276L2.31814 10.9015C1.71668 8.62037 1.41594 7.47977 1.92644 6.58122C2.36802 5.80394 3.33329 5.83224 4.58329 5.83214" stroke="#797979" stroke-width="1.25" stroke-linecap="round"/>
</svg>
