<svg width="20" height="20" viewBox="0 0 20 20" fill="none" xmlns="http://www.w3.org/2000/svg">
<path d="M17.7646 5.95181L17.3533 5.23798C17.0422 4.69812 16.8867 4.42819 16.622 4.32055C16.3574 4.21292 16.058 4.29785 15.4595 4.46772L14.4426 4.75414C14.0605 4.84227 13.6595 4.79227 13.3105 4.61298L13.0298 4.451C12.7305 4.25934 12.5004 3.97676 12.373 3.6446L12.0947 2.81345C11.9117 2.26344 11.8202 1.98843 11.6024 1.83113C11.3846 1.67383 11.0953 1.67383 10.5166 1.67383H9.58762C9.00904 1.67383 8.71971 1.67383 8.50187 1.83113C8.28408 1.98843 8.19259 2.26344 8.00961 2.81345L7.73131 3.6446C7.60391 3.97676 7.37375 4.25934 7.07451 4.451L6.79378 4.61298C6.44482 4.79227 6.04386 4.84227 5.66169 4.75414L4.64483 4.46772C4.04621 4.29785 3.74691 4.21292 3.48226 4.32055C3.21761 4.42819 3.06208 4.69812 2.751 5.23798L2.33968 5.95181C2.04809 6.45785 1.90229 6.71088 1.93059 6.98023C1.95888 7.24958 2.15406 7.46664 2.54442 7.90075L3.40362 8.86132C3.61362 9.12715 3.76271 9.59049 3.76271 10.0071C3.76271 10.4238 3.61367 10.887 3.40365 11.1529L2.54442 12.1135C2.15406 12.5477 1.95889 12.7647 1.93059 13.0341C1.90229 13.3034 2.04809 13.5564 2.33968 14.0624L2.75099 14.7762C3.06206 15.3161 3.21761 15.5861 3.48226 15.6937C3.74691 15.8013 4.04622 15.7164 4.64485 15.5465L5.66166 15.2601C6.0439 15.1719 6.44493 15.222 6.79393 15.4013L7.07462 15.5633C7.3738 15.755 7.60391 16.0375 7.73129 16.3697L8.00961 17.2009C8.19259 17.7509 8.28408 18.0259 8.50187 18.1832C8.71971 18.3405 9.00904 18.3405 9.58762 18.3405H10.5166C11.0953 18.3405 11.3846 18.3405 11.6024 18.1832C11.8202 18.0259 11.9117 17.7509 12.0947 17.2009L12.373 16.3697C12.5004 16.0375 12.7305 15.755 13.0297 15.5633L13.3104 15.4013C13.6594 15.222 14.0604 15.1719 14.4426 15.2601L15.4595 15.5465C16.058 15.7164 16.3574 15.8013 16.622 15.6937C16.8867 15.5861 17.0422 15.3161 17.3533 14.7762L17.7646 14.0624C18.0562 13.5564 18.202 13.3034 18.1737 13.0341C18.1454 12.7647 17.9502 12.5477 17.5599 12.1135L16.7006 11.1529C16.4906 10.887 16.3415 10.4238 16.3415 10.0071C16.3415 9.59049 16.4907 9.12715 16.7006 8.86132L17.5599 7.90075C17.9502 7.46664 18.1454 7.24958 18.1737 6.98023C18.202 6.71088 18.0562 6.45785 17.7646 5.95181Z" stroke="#797979" stroke-width="1.25" stroke-linecap="round"/>
<path d="M12.9329 10.0007C12.9329 11.6115 11.6271 12.9173 10.0163 12.9173C8.40542 12.9173 7.09961 11.6115 7.09961 10.0007C7.09961 8.38982 8.40542 7.08398 10.0163 7.08398C11.6271 7.08398 12.9329 8.38982 12.9329 10.0007Z" stroke="#797979" stroke-width="1.25"/>
</svg>
