<svg width="20" height="20" viewBox="0 0 20 20" fill="none" xmlns="http://www.w3.org/2000/svg">
<path d="M10.416 4.16602H9.58268C6.43998 4.16602 4.86864 4.16602 3.89232 5.14232C2.91602 6.11864 2.91602 7.68998 2.91602 10.8327V11.666C2.91602 14.8087 2.91602 16.3801 3.89232 17.3563C4.86864 18.3327 6.43998 18.3327 9.58268 18.3327H10.416C13.5587 18.3327 15.1301 18.3327 16.1063 17.3563C17.0827 16.3801 17.0827 14.8087 17.0827 11.666V10.8327C17.0827 7.68998 17.0827 6.11864 16.1063 5.14232C15.1301 4.16602 13.5587 4.16602 10.416 4.16602Z" stroke="white" stroke-width="1.25" stroke-linecap="round" stroke-linejoin="round"/>
<path d="M9.16732 6.24935C9.16732 6.93971 9.72698 7.49935 10.4173 7.49935C11.1077 7.49935 11.6673 6.93971 11.6673 6.24935V3.33268C11.6673 2.41221 10.9212 1.66602 10.0007 1.66602C9.08015 1.66602 8.33398 2.41221 8.33398 3.33268V4.16602" stroke="white" stroke-width="1.25" stroke-linecap="round" stroke-linejoin="round"/>
<path d="M6.25 14.5833H10.4167M6.25 11.25H13.75" stroke="white" stroke-width="1.25" stroke-linecap="round" stroke-linejoin="round"/>
</svg>
