<svg width="50" height="61" viewBox="0 0 50 61" fill="none" xmlns="http://www.w3.org/2000/svg">
<path d="M20.0056 40.9365C24.021 40.9365 27.2761 44.1917 27.2761 48.207C27.2761 52.2224 24.021 55.4775 20.0056 55.4775C15.9903 55.4775 12.7351 52.2224 12.7351 48.207C12.7351 44.1917 15.9902 40.9365 20.0056 40.9365Z" fill="#D2D2D2" stroke="#111111" stroke-width="0.673816"/>
<path d="M12.1446 0.714578C12.5652 0.620794 13.0001 0.610771 13.4246 0.685083C13.8491 0.759395 14.2548 0.916585 14.6185 1.14768C14.9822 1.37877 15.2969 1.67925 15.5445 2.03194C15.7921 2.38464 15.9678 2.78265 16.0616 3.20325L17.2772 8.65529L10.8584 10.0865L9.64275 4.6345C9.54872 4.21279 9.53889 3.77666 9.61383 3.35114C9.68877 2.92562 9.84701 2.51909 10.0795 2.15488C10.3119 1.79067 10.614 1.47596 10.9684 1.22879C11.3228 0.981624 11.7225 0.806877 12.1446 0.714578Z" fill="white" stroke="#111111" stroke-width="0.673816" stroke-linecap="round" stroke-linejoin="round"/>
<path d="M42.1338 43.4836L3.1266 52.1758C2.88431 52.2302 2.63203 52.2204 2.39465 52.1476C2.15726 52.0747 1.94298 51.9412 1.77292 51.7603C1.60286 51.5793 1.4829 51.3572 1.42488 51.1157C1.36686 50.8743 1.37278 50.6219 1.44206 50.3834L1.60377 49.8242C2.9514 45.0468 4.12385 39.7843 3.04574 34.9328L0.741289 24.583C-1.1993 15.8841 4.01603 7.02339 12.6678 4.88739C14.7775 4.36366 16.9707 4.26721 19.1182 4.60372C21.2658 4.94023 23.3243 5.70289 25.1727 6.84684C27.0211 7.99079 28.622 9.4929 29.8812 11.2648C31.1405 13.0367 32.0325 15.0425 32.505 17.1643L34.8835 27.8645C35.9684 32.716 39.2431 37.0015 42.5179 40.7344L42.9019 41.1724C43.0574 41.3599 43.1626 41.584 43.2076 41.8235C43.2526 42.0629 43.2359 42.3099 43.159 42.5411C43.0822 42.7723 42.9478 42.9801 42.7684 43.145C42.589 43.3099 42.3706 43.4264 42.1338 43.4836Z" fill="white" stroke="#111111" stroke-width="0.673816" stroke-linecap="round" stroke-linejoin="round"/>
<path d="M13.2809 36.8129C13.2703 35.2391 13.799 33.7091 14.7792 32.4777C15.7593 31.2463 17.1317 30.3878 18.6678 30.0451C20.2039 29.7024 21.8111 29.8963 23.2216 30.5944C24.6322 31.2924 25.7611 32.4526 26.4203 33.8818" stroke="#111111" stroke-width="0.673816" stroke-linecap="round" stroke-linejoin="round"/>
<path d="M25.3154 24.3008C25.6577 24.3009 25.9355 24.5786 25.9355 24.9209C25.9354 25.2631 25.6576 25.5409 25.3154 25.541C24.9731 25.541 24.6954 25.2632 24.6953 24.9209C24.6953 24.5785 24.9731 24.3008 25.3154 24.3008Z" fill="#BABABA" stroke="#111111" stroke-width="0.673816"/>
<path d="M10.478 27.6084C10.8203 27.6085 11.0981 27.8862 11.0981 28.2285C11.098 28.5707 10.8202 28.8485 10.478 28.8486C10.1357 28.8486 9.85803 28.5708 9.85791 28.2285C9.85791 27.8861 10.1357 27.6084 10.478 27.6084Z" fill="#BABABA" stroke="#111111" stroke-width="0.673816"/>
<path d="M46.4394 60.0596H49.3368" stroke="#111111" stroke-width="0.673816" stroke-linecap="round" stroke-linejoin="round"/>
</svg>
